<svg width="800" height="800" viewBox="0 0 800 800" fill="none" xmlns="http://www.w3.org/2000/svg">
<g clip-path="url(#clip0_1277_10)">
<path fill-rule="evenodd" clip-rule="evenodd" d="M0 0H800V800H0V0ZM611.557 670.653C574.477 670.653 553.51 651.313 537.397 625.003L476.303 660.497C498.373 704.1 543.48 737.37 613.297 737.37C684.697 737.37 737.867 700.293 737.867 632.61C737.867 569.83 701.803 541.903 637.93 514.513L619.137 506.463C586.883 492.497 572.913 483.367 572.913 460.813C572.913 442.567 586.87 428.597 608.89 428.597C630.477 428.597 644.38 437.7 657.27 460.813L715.81 423.227C691.047 379.67 656.687 363.033 608.89 363.033C541.753 363.033 498.793 405.957 498.793 462.337C498.793 523.543 534.83 552.497 589.08 575.607L607.873 583.67C642.16 598.667 662.603 607.797 662.603 633.573C662.603 655.087 642.703 670.653 611.557 670.653ZM320.216 670.183C294.387 670.183 283.644 652.47 271.835 631.517L210.641 668.567C228.368 706.083 263.225 737.233 323.416 737.233C390.03 737.233 435.67 701.803 435.67 623.963V367.327H360.497V622.947C360.497 660.52 344.913 670.183 320.216 670.183Z" fill="#22007C"/>
</g>
<defs>
<clipPath id="clip0_1277_10">
<rect width="800" height="800" fill="white"/>
</clipPath>
</defs>
</svg>
