<svg width="800" height="800" viewBox="0 0 800 800" fill="none" xmlns="http://www.w3.org/2000/svg">
<path d="M696.333 499.567V538.367H762.4C783.3 537.667 800 520.567 800 499.567C800 499.133 800 498.733 799.967 498.3V498.367V483.367C800 482.9 800 482.367 800 481.8C800 460.867 783.267 443.833 762.433 443.367H729.467V425.367H794.733V386.633H732.1C711 387.567 694.233 404.933 694.233 426.2V427.2V427.167V440.667C694.233 441 694.2 441.433 694.2 441.833C694.2 462.933 711 480.1 731.967 480.667H732.033C777.367 480.867 721.133 480.667 763.167 480.667V499.533L696.3 499.733L696.333 499.567ZM342.233 490.133C342.233 490.133 377.6 486.9 377.6 438.467C377.7 437.367 377.733 436.1 377.733 434.833C377.733 409.733 359.167 389 335.033 385.567L334.767 385.533H257.633V538.367H296.433V501.5L329.967 538.367H387.367L342.233 490.133ZM296.4 458.833V423.9H327.533C332.833 426.933 336.367 432.533 336.367 439C336.367 439.8 336.3 440.6 336.2 441.367V441.267C336.267 441.9 336.333 442.633 336.333 443.4C336.333 450 332.733 455.733 327.4 458.8L327.3 458.833H296.4ZM473.4 386.6H434.067C413.133 387.5 396.5 404.7 396.5 425.8V538.6H435.9V511.933H472.9V538.6H511.033V426.6C511.067 426.067 511.067 425.467 511.067 424.867C511.067 403.967 494.3 386.967 473.467 386.633H473.433L473.4 386.6ZM472.9 468.267H435.567V431.133C435.567 431.133 435.567 422.8 447.9 422.8H461.433C472.333 422.8 472.567 431.133 472.567 431.133V468.233L472.9 468.267ZM528.9 386.6H569.9V538.367H528.9V386.6ZM627.567 499.133V386.6H586.8V538.367H682.8V499.133H627.567Z" fill="#22007C"/>
<path d="M14.1333 538.367H173.8C173.8 538.367 143.3 390.7 244.333 330.867C266.367 319.5 336.467 277.067 451.267 367.067C454.9 363.833 458.333 361.267 458.333 361.267C458.333 361.267 353.233 250.033 236.233 262.467C177.433 268.033 105.1 324.833 62.6666 399.867C39 439.733 21.9666 486.4 14.4333 536.2L14.1666 538.333L14.1333 538.367Z" fill="#22007C"/>
<path d="M14.1333 538.333H173.8C173.8 538.333 143.3 390.667 244.333 330.833C266.367 319.467 336.467 277.033 451.267 367.033C454.9 363.8 458.333 361.233 458.333 361.233C458.333 361.233 353.233 250.033 236.233 262.467C177.233 268.033 104.9 324.833 62.4333 399.867C38.7666 439.7 21.8 486.4 14.4 536.233L14.1333 538.333ZM346.833 274.5L347.633 260.133C342.033 257.167 335.533 254.6 328.7 252.8L328.033 252.633L327.233 266.767C333.9 269.1 340.367 271.733 346.833 274.5Z" fill="#22007C"/>
<path d="M327.533 319.933L326.733 333.433C333.967 333.7 340.833 334.667 347.467 336.233L346.733 336.1L347.533 322.767C341.767 321.433 334.933 320.433 327.933 319.967L327.533 319.933ZM252.8 253.067H254.833L250.667 240C243.833 240 237.1 240.467 230.5 241.367L231.267 241.267L235.1 253.9C240.067 253.367 245.833 253.033 251.7 253.033H252.867L252.8 253.067ZM262.5 331.933L267.133 346.733C272 344.1 277.833 341.567 283.833 339.5L284.7 339.233L280.233 325.1C273.167 327.3 267.267 329.633 261.6 332.333L262.467 331.967L262.5 331.933ZM170.667 275.567L161.567 260.767C156.533 263.433 151.267 266.567 145.8 270L155.1 285C160.433 281.567 165.5 278.333 170.667 275.567ZM212.067 372.033L221.767 387.467C225.533 381.767 229.467 376.8 233.767 372.167L233.7 372.233L224.6 357.633C220.1 362 216 366.7 212.3 371.7L212.067 372V372.033ZM182.733 441.033L199.1 454.733C200.033 445.267 201.533 436.733 203.6 428.433L203.333 429.667L188.767 417.467C186.667 423.667 184.567 431.6 182.933 439.667L182.733 441.033ZM94.3667 339.233L80 325.967C74.6667 331.3 69.7 336.633 65.0333 341.967L80.5667 356.1C85.2 349.767 89.7 344.267 94.4667 338.967L94.3 339.167L94.3667 339.233ZM33.3333 435.033L10.1 425.967C6.26667 435.2 2.1 445.9 0 451.7L23.2333 460.7C25.8667 453.433 30.1 442.933 33.3333 435.033ZM179.833 495.5C180.133 505.333 181 514.667 182.433 523.8L182.267 522.5L206.5 531.733C204.7 523.4 202.867 513.933 201.633 503.867L179.833 495.533V495.5Z" fill="#22007C"/>
</svg>
