<svg width="800" height="800" viewBox="0 0 800 800" fill="none" xmlns="http://www.w3.org/2000/svg">
<path d="M570.752 604.587L740.494 755.237L406.503 728.997C471.937 689.466 525.919 642.258 566.337 604.673C567.003 604.803 567.711 604.875 568.419 604.875C569.192 604.873 569.972 604.781 570.752 604.587ZM758.622 694.609L789.884 285.164C774.419 324.67 749.952 370.68 718.233 419.808L758.622 694.609ZM582.105 595.286L751.455 745.592L706.242 437.991C668.972 493.469 624.219 550.191 582.105 595.286ZM384.298 741.837C347.822 762.047 310.278 778.142 272.256 789.895L662.547 763.648L384.425 741.802L384.298 741.837ZM58.3547 544.611L160.588 783.502L244.73 504.752L58.3547 544.611ZM269.553 490.606L554.213 582.039L481.575 294.22L269.553 490.606ZM497.505 265.634L762.862 247.872L555.392 78.4219L497.505 265.634ZM648.441 4.56094L474.312 3.77344L551.723 57.9766L648.441 4.56094ZM7.47656 443.372L1.74688 613.142L43.5109 536.97L7.47656 443.372ZM102.606 511.575C135.706 513.686 169.142 506.352 202.872 491.587C225.592 480.82 249.162 467.194 272.82 451.177C306.75 427.205 340.945 397.22 375.391 363.083C499.284 240.297 550.227 102.978 496.088 48.3031C483.169 35.2656 464.675 28.6016 441.106 28.4984C369.763 28.1906 263.13 81.8969 172.248 172.002C85.3953 258.092 29.075 360.277 28.7734 432.342C28.6672 457.966 35.7563 478.153 49.8406 492.353C62.3672 505.008 80.1656 510.136 102.606 511.575ZM361.098 737.781C364.983 735.772 368.853 733.741 372.673 731.673L258.108 510.623L171.884 796.227C172.606 796.133 178.43 795.433 178.43 795.433C185.955 794.475 193.388 793.373 200.728 792.128C248.1 784.052 294.97 769.264 340.031 748.161C347.162 744.827 354.173 741.359 361.098 737.781ZM595.067 555.455L597.784 552.336C599.681 550.111 601.592 547.844 603.494 545.569C603.494 545.569 609.381 538.559 611.669 535.775C615.519 531.119 619.345 526.367 623.186 521.589C626.714 517.183 630.233 512.762 633.745 508.262C637.43 503.542 641.114 498.812 644.77 493.991C653.047 483.095 661.416 471.672 670.359 459.053C679.823 445.703 688.966 432.269 697.572 419.078L682.055 409.589C640.85 384.394 558.039 333.642 503.613 300.209L574.041 579.264C580.602 572.059 587.528 564.225 595.067 555.455ZM794.117 106.172L575.008 75.4078L783.895 246.231C791.234 222.019 796.014 198.537 798.095 176.389C798.395 173.284 798.588 170.162 798.775 167.017C798.953 164.123 799.055 161.219 799.133 158.308C799.634 139.444 797.945 121.92 794.117 106.172ZM709.883 405.847C710.42 405.139 711.022 404.344 711.678 403.389C715.848 397.484 721.78 387.823 728.375 376.188C746.731 343.817 769.373 297.666 778.816 263.698L506.297 281.88C563.139 316.811 646.173 367.698 687.456 392.948L709.467 406.383C709.598 406.219 709.733 406.039 709.883 405.847ZM383.225 728.325L384.077 727.845C443.523 694.902 496.655 654.375 556.173 596.459L266.456 503.011L383.225 728.325ZM0.78125 643.659C2.06094 681.387 10.0672 712.536 24.5953 736.458L38.1234 575.344L0.78125 643.659ZM53.5688 564.698L37.9594 750.636C60.2 779.73 89.9156 792.722 134.097 792.722C138.547 792.722 143.169 792.6 148.125 792.358L140.32 772.964C123.431 731.008 75.2375 611.325 53.5688 564.698ZM790.85 94.6937C787.638 84.8672 783.538 75.7937 778.645 67.6531C758.908 34.8172 724.814 13.8078 677.284 5.19063L571.095 63.8328L790.85 94.6937Z" fill="#22007C"/>
</svg>
